<?xml version="1.0" encoding="UTF-8" standalone="no"?>
<svg
   xmlns:dc="http://purl.org/dc/elements/1.1/"
   xmlns:cc="http://creativecommons.org/ns#"
   xmlns:rdf="http://www.w3.org/1999/02/22-rdf-syntax-ns#"
   xmlns:svg="http://www.w3.org/2000/svg"
   xmlns="http://www.w3.org/2000/svg"
   xmlns:sodipodi="http://sodipodi.sourceforge.net/DTD/sodipodi-0.dtd"
   xmlns:inkscape="http://www.inkscape.org/namespaces/inkscape"
   width="16"
   height="16"
   fill="currentColor"
   class="bi bi-chat-right-text-fill"
   viewBox="0 0 16 16"
   version="1.1"
   id="svg4"
   sodipodi:docname="chat.svg"
   inkscape:version="1.0.1 (0767f8302a, 2020-10-17)">
  <metadata
     id="metadata10">
    <rdf:RDF>
      <cc:Work
         rdf:about="">
        <dc:format>image/svg+xml</dc:format>
        <dc:type
           rdf:resource="http://purl.org/dc/dcmitype/StillImage" />
        <dc:title></dc:title>
      </cc:Work>
    </rdf:RDF>
  </metadata>
  <defs
     id="defs8" />
  <sodipodi:namedview
     pagecolor="#ffffff"
     bordercolor="#666666"
     borderopacity="1"
     objecttolerance="10"
     gridtolerance="10"
     guidetolerance="10"
     inkscape:pageopacity="0"
     inkscape:pageshadow="2"
     inkscape:window-width="1848"
     inkscape:window-height="1016"
     id="namedview6"
     showgrid="false"
     inkscape:zoom="26.9375"
     inkscape:cx="8.5167633"
     inkscape:cy="10.248148"
     inkscape:window-x="72"
     inkscape:window-y="27"
     inkscape:window-maximized="1"
     inkscape:current-layer="svg4" />
  <path
     d="m 15.765236,3.554939 a 2,2 0 0 0 -2,-2 H 1.7652353 a 2,2 0 0 0 -2.00000002,2 v 8 a 2,2 0 0 0 2.00000002,2 h 9.5860007 a 1,1 0 0 1 0.707,0.293 l 2.853,2.853 a 0.5,0.5 0 0 0 0.854,-0.353 z m -12.5000007,1 h 9.0000007 a 0.5,0.5 0 0 1 0,1 H 3.2652353 a 0.5,0.5 0 0 1 0,-1 z m 0,2.5 h 9.0000007 a 0.5,0.5 0 0 1 0,1 H 3.2652353 a 0.5,0.5 0 0 1 0,-1 z m 0,2.4999997 h 5 a 0.5,0.5 0 0 1 0,1.0000003 h -5 a 0.5,0.5 0 0 1 0,-1.0000003 z"
     id="path2"
     style="fill:#00ff00" />
  <ellipse
     style="opacity:1;fill:#ff00ff;stroke:#ffffff;stroke-width:1.00157"
     id="path855"
     cx="12.328646"
     cy="11.040649"
     rx="1.6054144"
     ry="1.6223977" />
</svg>
